<svg width="16" height="17" viewBox="0 0 16 17" fill="none" xmlns="http://www.w3.org/2000/svg">
    <path d="M14.6654 7.89575V4.68493C14.6654 2.00924 13.732 0.938965 11.3987 0.938965H8.5987C6.26536 0.938965 5.33203 2.00924 5.33203 4.68493V5.52586H7.3987C9.73203 5.52586 10.6654 6.59613 10.6654 9.27182V11.6417H11.3987C13.732 11.6417 14.6654 10.5714 14.6654 7.89575Z"
          stroke="white" stroke-width="1" stroke-linecap="round" stroke-linejoin="round"/>
    <path d="M10.6654 12.4827V9.27184C10.6654 6.59615 9.73203 5.52588 7.3987 5.52588H4.5987C2.26536 5.52588 1.33203 6.59615 1.33203 9.27184V12.4827C1.33203 15.1583 2.26536 16.2286 4.5987 16.2286H7.3987C9.73203 16.2286 10.6654 15.1583 10.6654 12.4827Z"
          stroke="white" stroke-width="1" stroke-linecap="round" stroke-linejoin="round"/>
</svg>
